<svg xmlns="http://www.w3.org/2000/svg" width="187.488" height="128.539" viewBox="0 0 187.488 128.539"><defs><style>.a{fill:#eb078c;}.b{fill:#58595b;}</style></defs><g transform="translate(-193.505 -63.942)"><g transform="translate(263.213 73.261)"><path d="M3316.714,7870.053h-27.442l17.678-72.846a50.391,50.391,0,0,0-5.29.039,4.709,4.709,0,0,0-3.836,3.142,42.772,42.772,0,0,0-2.465,7.376c-1.051,5.129-1.787,10.323-2.684,15.485a3.2,3.2,0,0,1-.575.957c-.185-.3-.532-.6-.532-.9q-.041-13.493-.017-26.988a3.173,3.173,0,0,1,.064-.427h25.676q-8.805,36.466-17.574,72.776c5.219,1.374,9.357-.5,11.577-5.246a50.607,50.607,0,0,0,3.712-12.912c.533-3.073.787-6.195,1.207-9.29.04-.291.377-.541.576-.81.174.263.5.529.5.789q-.221,14.323-.5,28.644A1.225,1.225,0,0,1,3316.714,7870.053Z" transform="translate(-3233.099 -7795.775)"/><path d="M3455.163,7796.611c2.535,11.169,5.039,22.2,7.542,33.232l.214.011c.408-1.837.823-3.673,1.224-5.512,1.476-6.774,3-13.537,4.378-20.331a14.611,14.611,0,0,0,.07-4.825,2.878,2.878,0,0,0-3.044-2.623c-.263,0-.519-.352-.778-.54.239-.221.476-.632.717-.635,2.8-.024,5.6.014,8.4.04.056,0,.111.06.3.167-.162.249-.263.581-.484.718a7.954,7.954,0,0,0-3.417,5.382q-3.463,15.334-6.837,30.687a4.574,4.574,0,0,0-.073.972q-.005,17.016,0,34.031c0,.287.027.573.047.975,1.173,0,2.3,0,3.434,0,.474,0,.993-.011.982.64s-.553.609-1.012.609q-8.654,0-17.309,0c-.449,0-.985.082-.991-.612s.514-.632.974-.633c1.169,0,2.337,0,3.6,0,.021-.421.051-.769.051-1.115,0-11.214.056-22.428-.049-33.641a28.76,28.76,0,0,0-1.088-5.834c-2.244-10.07-4.525-20.131-6.752-30.2-.169-.767-.441-1-1.206-.982-.551.015-1.531.413-1.491-.653.036-.951.957-.563,1.492-.567,4.726-.03,9.453-.02,14.18-.015.539,0,1.326-.13,1.345.588.021.808-.788.67-1.36.673C3457.25,7796.614,3456.274,7796.611,3455.163,7796.611Z" transform="translate(-3356.409 -7795.288)"/><path d="M3015.4,7796.8c1.413,17.982,2.814,35.8,4.215,53.624l.2,0c.214-1.771.434-3.542.642-5.314q1.347-11.45,2.689-22.9c.8-6.792,1.6-13.584,2.377-20.379a12.553,12.553,0,0,0,.006-2.633c-.158-1.588-.871-2.2-2.435-2.406a3.412,3.412,0,0,1-1.049-.564c.368-.231.729-.652,1.1-.664,2.149-.064,4.3-.05,6.452-.01.315.006.625.291.937.447-.252.234-.469.6-.762.682a2.554,2.554,0,0,0-1.991,1.832,53.253,53.253,0,0,0-1.217,6c-1.017,8.045-1.95,16.1-2.908,24.154q-1.414,11.884-2.819,23.771c-.642,5.367-1.317,10.731-1.953,16.1-.107.907-.473,1.32-1.44,1.268-1.267-.07-2.542-.05-3.812-.006-.786.027-1.117-.3-1.2-1.061-.44-4.211-.921-8.417-1.352-12.63q-1.063-10.4-2.082-20.808-.924-9.286-1.842-18.574c-.658-6.608-1.32-13.215-1.992-19.937-.686,0-1.328.008-1.97,0-.472-.007-1.083.125-1.1-.61s.594-.647,1.068-.648q5.329-.011,10.658,0h4.2c.483,0,1.03.045.9.679-.05.246-.574.526-.9.558C3017.193,7796.852,3016.347,7796.8,3015.4,7796.8Z" transform="translate(-3002.099 -7795.477)"/><path d="M3140.934,7801.113h5.489l8.792,71.934a11.959,11.959,0,0,1,1.812.025c.323.053.6.359.9.552-.3.223-.6.633-.906.64-2.477.053-4.954.031-7.432.032q-3.275,0-6.552,0c-.452,0-.981.074-.978-.624s.529-.617.982-.622c.579,0,1.158,0,1.885,0-.428-4.712-.845-9.307-1.269-13.975h-9.125c-.292,3.428-.718,6.876-.826,10.334-.062,1.994.979,2.964,2.906,3.517.156.044.354.056.456.159a5.842,5.842,0,0,1,.524.7c-.238.171-.473.488-.713.491q-4.058.053-8.116,0c-.253,0-.5-.361-.75-.554.217-.231.406-.625.656-.67a3.86,3.86,0,0,0,3.188-3.417c.579-2.9,1.028-5.83,1.418-8.764.988-7.425,1.914-14.859,2.863-22.289q1.319-10.323,2.634-20.645C3139.493,7812.343,3140.211,7806.758,3140.934,7801.113Zm-1.163,19.083-.167.044q-2.364,18.672-4.734,37.4h8.629C3142.251,7845.106,3141.011,7832.651,3139.772,7820.2Z" transform="translate(-3103.388 -7799.975)"/></g><g transform="translate(193.505 63.942)"><path d="M2818.949,7747.648a28.567,28.567,0,0,0,1.146,2.748,2.671,2.671,0,0,0,1.145,1.161q8.043,3.416,16.131,6.722a1.325,1.325,0,0,1,.948,1.342c.662,9.525,1.373,19.047,2.057,28.571q.932,12.969,1.839,25.94.567,7.948,1.149,15.894c.025.348,0,.7,0,1.1h-7.054l-6.4-40.026-.187-.025c-.348,1.053-.706,2.1-1.042,3.159-.6,1.889-1.585,3.766-1.663,5.679s.747,3.871,1.189,5.807q2.76,12.09,5.525,24.178a4.033,4.033,0,0,1,.041.463l-13.49,6.6c-.464-2.244-.914-4.4-1.357-6.567-2.637-12.883-5.252-25.772-7.938-38.646a10.706,10.706,0,0,1,.357-4.323q3.665-19.533,7.395-39.055C2818.768,7748.214,2818.825,7748.067,2818.949,7747.648Zm10.062,26.106c.639-2.537.053-4.424-2.429-5.522l-5.042,6.507Z" transform="translate(-2778.568 -7747.648)"/><path class="a" d="M2663.864,8027.3c.083,1.649.2,3.236.239,4.824a177.741,177.741,0,0,0,3.364,31.119c1.255,6.1,2.854,12.1,6.07,17.523.81,1.365,1.815,2.614,2.82,4.043-1.339,1.494-2.732,3.122-4.2,4.675a63.78,63.78,0,0,1-9.862,9.029,19.819,19.819,0,0,1-4.5,2.255c-1.52.546-2.689-.453-3-2.033-.417-2.128-.917-4.246-1.505-6.333a4.365,4.365,0,0,0-1.184-1.751c-1.222-1.214-1.275-1.613-.045-3.021-.231-.337-.486-.7-.73-1.066-1.808-2.729-3.088-5.661-2.511-9a14.342,14.342,0,0,0-1.477-8.974,13.266,13.266,0,0,1-1.2-3.262c-.825-4.408-.515-8.671,1.843-12.649a6.1,6.1,0,0,0,.457-2.156,32.252,32.252,0,0,1,4.438-11.9c2.2-3.646,4.74-7.085,7.092-10.64a1.826,1.826,0,0,1,2.039-.912C2662.613,8027.175,2663.226,8027.222,2663.864,8027.3Z" transform="translate(-2645.728 -7972.379)"/><path class="a" d="M2778.347,8100.121c-1.833-1.212-3.753-2.311-5.482-3.656-5.911-4.6-10.073-10.58-13.26-17.282a81.9,81.9,0,0,1-6.844-23.906,136.176,136.176,0,0,1-1.141-24.945c.007-.157.03-.314.058-.608,1.552.088,3.068.163,4.583.273a.78.78,0,0,1,.527.343c.822,1.435,2.219,1.733,3.673,1.817,1.325.075,2.657.016,4.157.016,4.648,22.439,9.336,45.065,14.023,67.692Z" transform="translate(-2730.798 -7974.547)"/><path class="a" d="M2694.491,7828.4c-1.224,0-2.39.036-3.552-.013a1.675,1.675,0,0,0-1.607.7,4.551,4.551,0,0,1-4.266,1.836c-1.978-.059-3.953-.233-5.929-.355a1.046,1.046,0,0,1-1.114-1.055,47.462,47.462,0,0,0-4.685-14.5,2.441,2.441,0,0,1-.137-1.478,22.705,22.705,0,0,0-1.417-15.148,21.475,21.475,0,0,0-4.5-6.213c-.324-.315-.66-.617-1.063-.991a31.036,31.036,0,0,1,8.425-2.964c1.847-.357,3.73-.541,5.6-.751a1.582,1.582,0,0,1,.975.3c1.58,1.093,3.155,2.2,4.681,3.36a2.178,2.178,0,0,1,.71,1.187q2.5,11.174,4.94,22.362,1.425,6.472,2.847,12.943C2694.446,7827.83,2694.452,7828.054,2694.491,7828.4Z" transform="translate(-2662.21 -7779.671)"/><path class="b" d="M2786.835,7795.8q-.907-4.765-1.813-9.53c-.885-4.659-1.753-9.32-2.663-13.974a2.054,2.054,0,0,1,.432-1.885c.893-1.076,1.681-2.24,2.58-3.311a1.265,1.265,0,0,0,.133-1.655c-.521-.924-.953-1.9-1.468-2.94h5.413c-.56,1.066-1.046,2.082-1.62,3.046a1.084,1.084,0,0,0,.1,1.393q1.4,1.879,2.7,3.832a1.8,1.8,0,0,1,.307,1.155q-1.922,11.926-3.9,23.843Z" transform="translate(-2755.584 -7759.599)"/></g></g></svg>